<svg xmlns="http://www.w3.org/2000/svg" width="1600" height="500" viewBox="0 0 1600 500">
  <path fill="#8aa7a0" d="M0 285 122 192l108 62 144-144 165 158 121-90 118 70 144-166 168 173 143-110 127 119 160-83v319H0Z"/>
  <path fill="#5d827c" d="m0 337 164-104 126 92 169-113 156 127 156-98 165 89 137-123 158 135 165-87 204 99v156H0Z"/>
  <path fill="#355c58" d="m0 403 138-73 134 53 168-97 143 99 145-56 127 79 164-100 145 102 141-76 195 79v87H0Z"/>
  <g fill="#d8dfce" opacity=".45">
    <path d="m374 110 42 40-30-13-17 22-19-5Z"/>
    <path d="m907 82 47 48-31-10-20 18-21-8Z"/>
  </g>
</svg>
